<?xml version="1.0" encoding="UTF-8"?>
<svg id="Ebene_1" xmlns="http://www.w3.org/2000/svg" version="1.1" viewBox="0 0 110 110">
  <!-- Generator: Adobe Illustrator 29.0.0, SVG Export Plug-In . SVG Version: 2.1.0 Build 186)  -->
  <defs>
    <style>
      .st0 {
        fill: #fff;
      }

      .st1 {
        fill: #e3000f;
      }
    </style>
  </defs>
  <path class="st0" d="M55,110c30.38,0,55-24.62,55-55S85.38,0,55,0C24.62,0,0,24.63,0,55s24.62,55,55,55"/>
  <path class="st1" d="M40.19,80.95l-2.55.45-.2,5.6c0,.48,0,.98,0,1.5.01.52.03,1.06.06,1.61h-.05c-.14-.44-.3-.9-.49-1.38-.19-.48-.41-.98-.65-1.48l-2.43-5.19-2.6.46-.48,5.67c-.04.52-.07,1.04-.07,1.56,0,.52.01,1.03.03,1.56h-.03c-.12-.42-.27-.87-.44-1.35-.17-.48-.37-1.01-.58-1.59l-2.17-5.18-2.75.49,4.66,10.77,3.2-.56.48-5.58c.03-.3.04-.65.03-1.05s-.03-.83-.06-1.28h.03c.15.47.29.89.41,1.24.12.36.24.67.36.95l2.37,5.08,3.21-.57.68-11.71ZM47.45,86.89l-2.75.48.4-3.17c.03-.32.06-.62.08-.93.02-.3.03-.6.02-.88h.03c.12.31.24.6.36.87.12.27.24.53.38.79l1.47,2.84ZM52.27,90.42l-5.62-10.6-3.44.61-1.6,11.88,2.6-.46.29-2.34,3.87-.68,1.08,2.09,2.83-.5ZM47.15,76.77c-.3-.21-.63-.28-1-.22-.36.06-.64.24-.86.55-.22.3-.29.63-.23,1,.06.36.25.64.56.85.31.22.64.29.99.23.37-.06.65-.25.86-.56.21-.31.28-.64.22-.99-.06-.37-.25-.65-.55-.86M43.54,77.41c-.31-.21-.64-.28-.99-.22-.37.06-.65.25-.86.55-.21.3-.28.63-.22,1,.06.36.24.64.55.86.3.22.64.29,1,.23.36-.06.64-.25.86-.56.21-.31.29-.64.23-.99-.06-.37-.25-.65-.56-.86M62.51,88.61l-1.98-11.24-2.6.46.76,4.31-4.11.73-.76-4.31-2.6.46,1.98,11.24,2.6-.46-.83-4.68,4.12-.73.82,4.68,2.6-.46ZM70.81,87.15l-.4-2.27-3.4.6-1.58-8.98-2.6.46,1.98,11.24,6-1.06ZM78.58,85.78l-.39-2.23-4.01.71-.44-2.48,3.67-.65-.37-2.12-3.66.65-.39-2.22,4.01-.71-.39-2.2-6.61,1.17,1.98,11.24,6.61-1.17ZM89.98,83.77l-1.98-11.24-2.48.44.67,3.81c.06.26.12.55.18.85s.13.66.21,1.06c.08.4.15.75.21,1.04.06.29.12.56.18.8-.31-.58-.61-1.07-.91-1.47-.3-.4-.63-.84-1.01-1.32l-3.19-4.14-3.41.6,1.98,11.24,2.48-.44-.84-4.66c-.09-.53-.2-1.06-.31-1.59-.11-.53-.21-1-.31-1.42.25.49.52.95.81,1.38.29.42.57.81.84,1.15l3.47,4.51,3.4-.6ZM94.36,80.66c-.34-.23-.72-.3-1.14-.23-.42.07-.75.28-.99.6-.24.33-.32.7-.25,1.11.07.4.27.71.61.94.34.23.72.3,1.14.23.42-.07.75-.28.99-.6.24-.33.33-.69.25-1.09-.07-.41-.28-.73-.62-.96M93.12,71l-2.98.53,1.9,8.43,2.21-.39-1.13-8.56Z"/>
  <path class="st1" d="M36.52,47.77l-.43-2.47c-.82.15-1.5.27-2.04.37-.54.1-1.09.22-1.65.35h-.02s.56-.92.56-.92c.75-1.18,1.28-2.21,1.58-3.11.3-.9.39-1.69.27-2.38-.08-.46-.23-.86-.44-1.23-.21-.36-.5-.67-.85-.91-.35-.24-.77-.4-1.25-.49-.48-.08-1.01-.07-1.6.03-.6.11-1.15.26-1.63.48-.49.21-.92.45-1.3.73l.79,2.23c.25-.23.54-.43.88-.6.34-.17.67-.29,1.01-.35.45-.08.81-.02,1.1.17.29.19.46.47.53.85.04.21.04.44,0,.69-.03.25-.12.55-.26.9-.14.34-.33.75-.58,1.21-.25.46-.58,1-.98,1.61l-1.15,1.82.4,2.27,7.05-1.24ZM43.1,41.25c-.47-.41-1.05-.64-1.72-.69l.02-.06c.49-.28.85-.66,1.09-1.15.24-.48.31-1.02.2-1.62-.07-.4-.21-.76-.41-1.07-.2-.31-.47-.56-.79-.75s-.73-.31-1.21-.37c-.48-.06-.99-.04-1.54.06-.53.09-1.04.23-1.51.4-.47.17-.88.37-1.2.58l.59,2.08c.25-.18.53-.34.82-.47.29-.13.63-.23,1.01-.3.55-.1.95-.06,1.2.12.26.18.41.43.47.75.03.19.02.38-.04.57-.06.19-.2.38-.41.56-.21.18-.52.35-.92.5-.4.15-.91.27-1.51.37l.36,2.03c.65-.2,1.22-.33,1.72-.38.5-.05.87-.03,1.13.06s.44.22.56.39c.12.17.2.36.24.56.07.4-.04.76-.33,1.09-.29.33-.78.56-1.48.68-.35.06-.67.1-.96.12-.29.02-.57,0-.84-.04l.14,2.24c.57.06,1.24.02,2.01-.11.79-.14,1.47-.35,2.04-.63.57-.28,1.02-.62,1.37-1.01.34-.39.58-.84.72-1.35.14-.51.16-1.04.06-1.61-.11-.61-.4-1.12-.87-1.53M48.09,43.7c-.12-.18-.26-.33-.43-.45-.17-.12-.36-.2-.57-.25-.21-.05-.42-.05-.63-.02-.21.04-.4.11-.58.23-.18.12-.32.26-.44.43-.12.17-.2.36-.25.57-.05.21-.05.42-.02.63.04.22.12.42.23.59.12.17.26.32.43.43.17.11.36.2.56.24.2.05.41.06.62.02.21-.04.41-.12.59-.23.18-.12.33-.26.45-.42s.21-.35.26-.55c.05-.2.06-.42.02-.64-.04-.21-.11-.41-.23-.59M57.13,34.81l-.39-2.2-6.36,1.12,1.98,11.24,2.6-.46-.78-4.45,3.51-.62-.37-2.12-3.51.62-.44-2.48,3.77-.66ZM66.81,42.43l-.39-2.23-4.01.71-.44-2.48,3.66-.65-.37-2.12-3.67.65-.39-2.22,4.01-.71-.39-2.2-6.61,1.17,1.98,11.24,6.61-1.17ZM73.24,38.81c-.27.31-.71.52-1.32.63-.19.03-.37.06-.54.08-.17.02-.33.04-.48.05l-.47-2.68c.28-.06.48-.1.61-.13l.25-.04c.64-.11,1.16-.09,1.55.07.39.16.62.46.7.89.08.44-.02.82-.29,1.13M72.14,34.22c-.25.29-.68.49-1.3.6l-.41.07c-.12.02-.24.04-.35.04l-.45-2.53c.15-.04.31-.07.46-.11.15-.03.33-.07.53-.1.54-.1.96-.06,1.25.11.29.17.47.44.53.81.08.44,0,.81-.26,1.1M75.55,35.68c-.41-.4-.92-.63-1.52-.68v-.05c.45-.31.77-.69.94-1.15.17-.45.21-.95.12-1.48-.17-.94-.64-1.61-1.41-1.98-.78-.38-1.77-.46-2.98-.25-.7.12-1.41.26-2.14.4-.73.15-1.35.28-1.87.39l1.98,11.23c.82-.15,1.54-.27,2.15-.36.61-.1,1.09-.17,1.42-.23.89-.16,1.61-.39,2.16-.69.55-.3.98-.65,1.29-1.05.31-.4.52-.82.62-1.28.1-.45.11-.91.03-1.36-.1-.57-.35-1.05-.76-1.45"/>
  <path class="st1" d="M43.54,24.98l-2.75.48.4-3.17c.03-.32.06-.63.08-.93.02-.3.03-.6.02-.88h.03c.12.31.24.6.36.87.12.27.24.53.38.79l1.47,2.84ZM48.35,28.51l-5.62-10.6-3.44.61-1.6,11.88,2.6-.46.29-2.34,3.86-.68,1.08,2.1,2.83-.5ZM62.98,25.93l-3.28-11.01-3.64.64-.73,5.28c-.05.34-.09.73-.11,1.15-.02.43-.02.9-.03,1.41h-.03c-.14-.37-.29-.77-.47-1.18-.18-.42-.36-.81-.55-1.17l-2.51-4.71-3.61.64.7,11.47,2.48-.44-.38-4.9c-.05-.67-.12-1.36-.21-2.08-.09-.72-.18-1.36-.28-1.92h.03c.16.45.4,1.01.72,1.7.32.68.62,1.31.91,1.87l2.52,4.74,2.42-.43.78-5.44c.08-.66.14-1.29.18-1.91.04-.62.07-1.25.08-1.88h.05c.1.57.24,1.21.41,1.9.17.7.34,1.36.53,1.99l1.39,4.74,2.65-.47Z"/>
  <path class="st1" d="M45.13,71.33c-1.46,1.64-3.61,2.72-5.8,3.1-2.73.48-5.56.3-8.18-1.17l1.78-4.69c1.61.91,3.47,1.66,5.39,1.32,1.32-.23,2.55-.86,2.3-2.28-.26-1.48-2.38-1.19-3.64-1.28-2.73-.21-6.14-.51-6.98-5.24-.72-4.11,1.94-7.35,6.28-8.12,2.19-.39,5.15.13,7.26.81l-1.7,4.43c-1.23-.52-3.1-.63-3.94-.48-1.04.18-2.31.71-2.11,1.84.21,1.18,1.56,1.18,2.81,1.28,0,0,1.52.06,2.18.16,2.85.41,5.03,1,5.66,4.58.36,2.01.18,4.06-1.3,5.74"/>
  <path class="st1" d="M54.41,50.2l-8.99,1.58,3.58,20.31,5.79-1.02-1.18-6.7,2.95-.52c5.11-.9,6.25-4.13,5.55-8.11-.52-2.96-2.53-6.46-7.69-5.55M53.27,59.86l-.45.08-.84-4.74.45-.08c2.05-.36,3.81-.67,4.23,1.7.44,2.49-1.47,2.71-3.39,3.05"/>
  <path class="st1" d="M70.79,47.4l-8.58,1.51,3.58,20.31,8.58-1.51c5.62-.99,8.28-6.08,7.28-11.78-1-5.7-5.22-9.52-10.86-8.53M71.32,63.37l-.63.11-1.91-10.85.68-.12c3.39-.6,5.83,1.25,6.38,4.35.65,3.69-1.38,5.95-4.52,6.51"/>
</svg>