<?xml version="1.0" encoding="utf-8"?>
<!-- Generator: Adobe Illustrator 27.0.1, SVG Export Plug-In . SVG Version: 6.00 Build 0)  -->
<svg version="1.1" id="Ebene_1" xmlns="http://www.w3.org/2000/svg" xmlns:xlink="http://www.w3.org/1999/xlink" x="0px" y="0px"
	 viewBox="0 0 32.5717773 64.4697266" style="enable-background:new 0 0 32.5717773 64.4697266;" xml:space="preserve">
<style type="text/css">
	.st0{fill:#E3000F;}
</style>
<g>
	<path class="st0" d="M32.5717773,10.8779297c0,0.572998-0.46875,1.0390625-1.0419922,1.0390625h-6.1179199
		c-2.1508789,0-3.2409668,1.0268555-3.2409668,3.0529785v6.7119141h9.3588867c0.295166,0,0.5800781,0.1262207,0.776123,0.3479004
		c0.1960449,0.2211914,0.2919922,0.517334,0.2590332,0.8132324L31.329834,33.5549316
		c-0.0629883,0.5209961-0.5058594,0.9199219-1.0349121,0.9199219h-8.1240234v28.9560547
		c0,0.5769043-0.4660645,1.0388184-1.0390625,1.0388184H9.1489258c-0.572998,0-1.0388184-0.4619141-1.0388184-1.0388184V34.3378906
		H1.0429688C0.4660645,34.3378906,0,33.8728027,0,33.2958984V22.7209473c0-0.572998,0.4660645-1.0390625,1.0429688-1.0390625
		h7.4179688c0,0-0.2509766-9.598877,0.0742188-11.3359375c0.3508301-1.8850098,1.2939453-4.2319336,3.6108398-6.3649902
		C16.1640625,0.2849121,21.25,0,22.7099609,0c8.5853081,0,8.8198242,0.0070801,8.8198242,0.0070801
		c0.5732422,0,1.0419922,0.4658203,1.0419922,1.0388184V10.8779297L32.5717773,10.8779297z"/>
</g>
</svg>
