<?xml version="1.0" encoding="utf-8"?>
<!-- Generator: Adobe Illustrator 27.0.1, SVG Export Plug-In . SVG Version: 6.00 Build 0)  -->
<svg version="1.1" id="Ebene_1" xmlns="http://www.w3.org/2000/svg" xmlns:xlink="http://www.w3.org/1999/xlink" x="0px" y="0px"
	 viewBox="0 0 48.6515427 64.7961884" style="enable-background:new 0 0 48.6515427 64.7961884;" xml:space="preserve">
<style type="text/css">
	.st0{fill:#E3000F;}
</style>
<g>
	<path class="st0" d="M31.6011028,22.936079c3.631834,1.2558594,5.5707989,5.2314453,4.3242168,8.8637695
		c-0.2646484,0.7675762-0.9858398,1.2504864-1.7558594,1.2509747c-0.1987305,0-0.4008789-0.0324707-0.5991211-0.1000977
		c-0.9663086-0.3334961-1.4814453-1.3896465-1.1503906-2.3554668c0.5839844-1.703125-0.324707-3.5664062-2.025877-4.1538086
		c-0.4677734-0.1611328-0.8447266-0.4946289-1.0615234-0.9399414c-0.2163086-0.4443359-0.2470703-0.9472656-0.0861816-1.4150391
		C29.5781536,23.1206493,30.6333294,22.6055126,31.6011028,22.936079L31.6011028,22.936079z M31.5498333,18.9355907
		c-0.331543,0.9658203,0.1835938,2.0219727,1.1479473,2.3544922c4.3657227,1.5092773,6.6984863,6.2915039,5.2001953,10.6606445
		c-0.3320312,0.966795,0.1835938,2.0231915,1.1499023,2.3554668c0.1987305,0.0683594,0.4013672,0.1003418,0.6005859,0.1003418
		c0.7695312,0,1.4902344-0.4829102,1.7548828-1.2502441c2.1611328-6.2993145-1.2016602-13.194334-7.4985352-15.3715801
		C32.9385033,17.4531689,31.880888,17.9692822,31.5498333,18.9355907L31.5498333,18.9355907z M46.8813744,34.5127373
		c-0.1611328,0.4685059-0.4951172,0.8461914-0.940918,1.0632324c-0.2563477,0.125-0.5327148,0.1879883-0.8100586,0.1879883
		c-0.203125,0-0.4072266-0.0336914-0.6049805-0.1015625c-0.965332-0.3334961-1.4804688-1.3896484-1.1503906-2.3549805
		c2.4150391-7.0358868-1.3398438-14.7365704-8.3706055-17.168211c-0.46875-0.1611338-0.847168-0.4951181-1.0639648-0.9409189
		c-0.2167969-0.4443359-0.2475586-0.9467773-0.0869141-1.4145508c0.3330078-0.9672852,1.3891602-1.4829102,2.355957-1.1503906
		C45.1714134,15.7309999,49.9580345,25.5459423,46.8813744,34.5127373L46.8813744,34.5127373z M46.7207298,58.6023369
		l-3.6328125,3.5131836c-1.7026367,1.6848145-3.9956055,2.6440468-6.4360352,2.6801796
		c-0.0351562,0.0004883-0.0698242,0.0004883-0.1049805,0.0004883c-6.8056622,0-17.1511211-4.0119667-28.1086407-22.9919472
		C-2.5758996,22.7268505-0.8102745,11.7566347,2.6111121,5.9133735c1.2714844-2.1286623,3.2631836-3.6457522,5.6196294-4.2912598
		l4.8051758-1.3745117c3.2475586-0.9326172,6.6323242,0.8457031,7.7109375,4.0505371l3.9865723,11.7895508
		c1.0390625,3.1118164-0.501709,6.5449219-3.505127,7.8259277l-2.9829102,1.2587891
		c0.4746094,1.7822266,1.3120117,4.1845703,3.9208984,8.7031231c2.6159668,4.5307617,4.276123,6.451416,5.5759277,7.7463379
		l2.565918-1.9421387c2.6249981-1.9675293,6.3676739-1.5910645,8.5307598,0.848877l8.2368164,9.3764648
		C49.306179,52.432415,49.1518822,56.2544365,46.7207298,58.6023369L46.7207298,58.6023369z M43.3227806,53.2092705
		l-8.2329102-9.3718262c-0.434082-0.4907227-1.2329102-0.5690918-1.7727051-0.1643066l-3.9274883,2.9729004
		c-1.15625,0.8894043-2.8427734,0.7836914-3.9077148-0.2575684l-0.4526367-0.4343262
		c-1.6413574-1.5632324-3.6931152-3.5168457-7.1931152-9.5786133c-3.4990234-6.0600567-4.1674805-8.8212872-4.7045898-11.0400372
		l-0.1552734-0.6313477c-0.3657227-1.4284668,0.3779297-2.902832,1.7729492-3.4831543l4.5258789-1.909668
		c0.605957-0.2583008,0.9321289-0.9912109,0.7192383-1.6298828L16.0085735,5.8957953
		c-0.1835938-0.5466309-0.6879883-0.8925781-1.2333984-0.8925781c-0.1191406,0-0.2402344,0.0166016-0.3608398,0.0505371
		L9.578886,6.4372993C8.4460735,6.7471137,7.5095496,7.4626899,6.9143348,8.4587831
		c-2.7397461,4.6796875-3.9589844,13.8486338,5.8540044,30.8452148
		c9.7675781,16.9179688,18.2966309,20.4924316,23.755125,20.4926758c0.0253906,0,0.050293-0.0002441,0.0756836-0.0002441
		c1.1210938-0.0170898,2.1918945-0.4631348,2.9926758-1.2548828l3.6533203-3.5339355
		c0.0004883-0.0004883,0.0009766-0.0009766,0.0019531-0.0014648C43.7500267,54.5205498,43.7837181,53.7312431,43.3227806,53.2092705
		L43.3227806,53.2092705z"/>
</g>
</svg>
