<?xml version="1.0" encoding="utf-8"?>
<!-- Generator: Adobe Illustrator 27.3.1, SVG Export Plug-In . SVG Version: 6.00 Build 0)  -->
<svg version="1.1" id="Ebene_1" xmlns="http://www.w3.org/2000/svg" xmlns:xlink="http://www.w3.org/1999/xlink" x="0px" y="0px"
	 viewBox="0 0 99.2126007 99.2126007" style="enable-background:new 0 0 99.2126007 99.2126007;" xml:space="preserve">
<style type="text/css">
	.st0{fill:#E3000F;}
</style>
<path class="st0" d="M32.0384712,57.20187c-0.0189056-0.7643394-0.4399891-1.544239-1.3299828-2.0083237
	c-0.9111252-0.4752121-1.8860054-0.4770622-2.6703548,0.1782913c-0.9552307,0.7980652-1.8459663,1.6939926-2.6532974,2.6418114
	c-0.6646214,0.7802734-0.679451,1.74366-0.2149925,2.6670151c0.4696465,0.9341049,1.2795734,1.3829918,2.2981911,1.3922577
	C29.0667629,62.0873795,32.0329132,59.0504303,32.0384712,57.20187 M50.128952,75.2167282
	c-0.0151978-0.6772232-0.4707565-1.4541626-1.4041214-1.9160233c-0.9344749-0.4626007-1.8834038-0.3940277-2.6596031,0.2705917
	c-0.9048195,0.7743454-1.7558899,1.6272659-2.5339432,2.5291214c-0.696125,0.8077087-0.7317162,1.796669-0.2516823,2.7389297
	c0.4841003,0.9496765,1.312191,1.4096832,2.3841858,1.3755798C47.2617722,80.1641464,50.1300659,77.1761246,50.128952,75.2167282
	 M35.9898834,72.3258286c0.2160988,1.1679993,0.7165146,1.9582825,1.7017708,2.3893738
	c1.0193596,0.4455566,1.9897919,0.2824554,2.7867432-0.4848404c1.3655739-1.3147888,2.7185402-2.6455154,4.0207253-4.0225754
	c1.0493851-1.109436,0.9856262-2.6888885-0.0548592-3.6800766c-1.0141716-0.9656143-2.5313492-0.942627-3.6122437,0.1056442
	c-1.320713,1.2810516-2.6455116,2.562851-3.8883896,3.918045C36.5040092,71.0310516,36.3012505,71.7279282,35.9898834,72.3258286
	 M32.9748001,68.894104c0.255024-0.0985947,0.8532982-0.1645737,1.2035866-0.4941101
	c1.5609169-1.4701004,3.1118279-2.9609604,4.544487-4.5541267c0.8833237-0.9822922,0.6427536-2.5354233-0.3098869-3.4068871
	c-0.9607887-0.8788719-2.4442368-0.9226112-3.4235611,0.0051918c-1.4367447,1.3607521-2.8382683,2.7611656-4.1993885,4.1979103
	c-0.7357922,0.7765656-0.8303165,1.7570038-0.4007034,2.7304001C30.8230228,68.3558807,31.6318417,68.8355408,32.9748001,68.894104
	 M88.4694748,35.7074699c-4.1801224-5.4285526-8.3031464-10.7822266-12.4358139-16.1488819
	c-2.3085709,1.4708443-4.525589,2.8831196-6.7867126,4.3235683C73.72509,29.5772247,78.1242676,35.1718407,82.5512543,40.8013
	C84.560318,39.0720978,86.4793091,37.4203644,88.4694748,35.7074699 M24.6723919,19.5370903
	c-4.6490173,5.7584553-9.2605972,11.4705772-13.8985014,17.215683c1.988307,1.7091904,3.9243507,3.3742676,5.9196997,5.089386
	c4.9348125-6.0116234,9.822546-11.9654293,14.7655144-17.9866886C29.1772194,22.4035301,26.956501,20.9901409,24.6723919,19.5370903
	 M75.6933746,53.1841087c1.5194016-3.1796608,2.8938675-6.0968819,4.3143005-8.9918633
	c0.2720795-0.5545311,0.2346344-0.9192772-0.1493835-1.4041214c-4.4974136-5.6802406-8.9766617-11.3753071-13.4425735-17.080759
	c-0.3276749-0.4188614-0.6564636-0.5763988-1.1839371-0.5726948c-3.4005814,0.0237274-6.8015366,0.0063019-10.2024918,0.0200176
	c-0.4103394,0.0018539-0.8332787,0.0667248-1.2284164,0.1797771c-3.6652489,1.046051-7.3271599,2.1039619-10.9838753,3.1792946
	c-0.2665215,0.0782127-0.5827065,0.2620621-0.7131882,0.4900303c-2.0768967,3.6237316-4.1452713,7.2522793-6.1717529,10.9045506
	c-0.5901146,1.0627289-0.2709656,2.3434143,0.6286659,3.10812c1.2673416,1.0764465,3.0918121,0.7094727,3.9803238-0.8373566
	c1.4975281-2.607708,2.9817162-5.2231979,4.4410667-7.8527718c0.4748383-0.8551521,1.1135101-1.2388039,2.1032181-1.1617012
	c2.7778473,0.2168427,5.5586586,0.4040375,8.3398438,0.5734367c0.8299408,0.0504112,1.4541626,0.3803139,2.0405731,0.9700623
	c5.8388901,5.8692818,11.7000237,11.7163277,17.5489159,17.5756073
	C75.2292938,52.4987259,75.3857117,52.7715454,75.6933746,53.1841087 M48.5031662,69.6525116
	c0.0685768,0.0559692,0.0882225,0.0848846,0.1123123,0.0896988c3.9273148,0.7558136,5.8477898,4.7932129,4.4221687,8.2178955
	c-0.0804367,0.1931229,0.0485611,0.5882645,0.2153625,0.750618c1.132412,1.1027603,2.7077866,1.1227798,3.7367859,0.0904465
	c1.0297394-1.0334473,1.0074997-2.5884323-0.1008186-3.7445755c-1.1965485-1.2476959-2.4331245-2.4572144-3.6448593-3.6904526
	c-0.8992615-0.9155655-0.9689522-1.9149094-0.2005386-2.6429214c0.7246704-0.6864929,1.7162323-0.5882568,2.5821304,0.2776413
	c1.2032166,1.2024689,2.3578682,2.4568405,3.6100159,3.6055679c0.4633446,0.4251633,1.1164742,0.7572861,1.7329102,0.8770142
	c1.056057,0.2057266,2.0705986-0.4362869,2.5313454-1.385582c0.4889221-1.0074997,0.3265648-2.1247177-0.5274734-3.0047073
	c-1.8448524-1.9000854-3.7212181-3.7701416-5.5827484-5.6542892c-0.5878944-0.5949364-1.2002525-1.1694832-1.7458878-1.801487
	c-0.5941925-0.6879768-0.5237656-1.6691551,0.0923004-2.2718735c0.6175461-0.6042023,1.5735207-0.6320038,2.2792816-0.0522652
	c0.2146263,0.1760712,0.4036713,0.3840218,0.599762,0.5819588c2.1966248,2.2203522,4.3943634,4.4395866,6.5869102,6.6640205
	c0.7354279,0.74617,1.5913086,1.135376,2.6414413,0.8640442c2.0142517-0.5204315,2.6006622-2.8879395,1.0801468-4.4351425
	c-3.4402466-3.5006638-6.901619-6.9802017-10.3533516-10.4693756c-0.1960907-0.1979408-0.4021873-0.3903236-0.5693588-0.611618
	c-0.5326653-0.7046509-0.4674225-1.6002045,0.1427078-2.2055206c0.5897484-0.5853004,1.5308952-0.6446075,2.2114563-0.1115761
	c0.2835655,0.2220345,0.5300636,0.493,0.7847176,0.7506218c3.3742676,3.4091072,6.7377853,6.8285942,10.1242828,10.2251015
	c1.1683655,1.1720772,2.7444839,1.2106285,3.7998047,0.1612434c1.062355-1.055687,1.017868-2.6332817-0.1464233-3.7998009
	c-6.4631119-6.4727478-12.930294-12.9410477-19.4152794-19.3919258c-0.2624359-0.2613258-0.7057648-0.4388771-1.0812569-0.4718704
	c-2.0268593-0.1786652-4.0615005-0.2720718-6.0872459-0.4581566c-0.5652809-0.0518913-0.8432884,0.0952682-1.1135101,0.5856705
	c-1.2499199,2.2692795-2.5213394,4.5266953-3.8268623,6.7640991c-1.3885536,2.3801117-4.0196114,3.5069656-6.5639305,2.8697739
	c-3.8731956-0.9700584-5.7039661-5.1872406-3.7408676-8.7394295c1.9401207-3.5106735,3.9488144-6.9831715,5.9256325-10.4734592
	c0.1567955-0.2772598,0.2969093-0.5634232,0.4752045-0.9037037c-1.5560951-0.4266491-2.9976578-0.8510742-4.4584923-1.1935768
	c-0.2516899-0.0593109-0.6831551,0.1478996-0.866272,0.3688202c-3.8928413,4.7035084-7.762701,9.4266663-11.6362667,14.1468582
	c-1.1624413,1.4167213-2.3230267,2.8353004-3.4962139,4.2672195c2.1851311,2.9427986,4.3228207,5.8214722,6.4801579,8.7260895
	c1.8404064-1.4556465,3.8116665-1.8878517,5.9552822-1.1520615c2.1940346,0.7532158,3.3953972,2.4127312,3.911377,4.6564331
	c1.8960114-0.2880135,3.6051941,0.0159416,5.0778923,1.2332382c1.4645462,1.2106323,2.0976562,2.8230743,2.1688271,4.6579208
	C46.8284492,62.8902626,48.9009018,65.461647,48.5031662,69.6525116 M92.4505386,36.5337029
	c-1.9886856,1.7733192-3.9028549,3.6404152-5.9879074,5.2925148c-1.9497528,1.5446091-3.398735,3.346096-4.3595276,5.6550369
	c-1.0786667,2.5932503-2.3956757,5.087162-3.5885162,7.634079c-0.1141663,0.2439041-0.195343,0.6027184-0.1015625,0.8299408
	c1.9049072,4.6100998-0.247612,8.3850632-5.1801987,8.9344101c-0.3725281,3.6014862-2.3359985,5.6824646-6.0049515,6.0390549
	c-0.9151993,4.1519394-2.2559357,5.4937897-6.07798,6.033493c-0.178669,2.5810242-1.3407364,4.5834122-3.8283424,5.5471725
	c-2.4857521,0.9630127-4.7042503,0.305069-6.662159-1.5750046c-1.724762,2.0031357-3.7864609,3.1285095-6.4445801,2.4879837
	c-2.6429214-0.6368256-4.0907784-2.4309006-4.602314-5.152771c-0.5159798,0-1.0412331,0.0518951-1.5531349-0.0085297
	c-2.8330803-0.3350906-4.9070129-2.4249649-5.2206039-5.2465515c-0.0492973-0.4451752-0.0834045-0.74617-0.6813011-0.8128891
	c-3.2786312-0.3647461-5.4007549-2.8364182-5.3488598-6.149147c0.0029697-0.190155,0.0003738-0.3799438,0.0003738-0.5890045
	c-0.4655685-0.120842-0.9022293-0.2031326-1.3177567-0.3465805c-3.7345619-1.288475-5.172781-5.8381538-2.8293705-9.0596962
	c0.3799458-0.5219154,0.3210049-0.8151207-0.0289135-1.2803192c-2.2114506-2.9409447-4.3736076-5.9189568-6.6021099-8.8465576
	c-0.5156126-0.6772232-1.2009926-1.2343521-1.8496761-1.799263c-2.1451044-1.8670921-4.3139296-3.7071304-6.4623709-5.5708923
	c-0.348804-0.3028412-0.6394129-0.6731491-0.9567127-1.0123138v-1.1713371
	c5.3173504-6.58321,10.6335859-13.16679,15.9524183-19.7485161c0.9481888-1.1731873,1.6002102-1.2829094,2.8668137-0.4807663
	c2.612154,1.6539593,5.2035503,3.3409042,7.837944,4.9574203c0.7921371,0.4859581,1.6687851,0.8866634,2.5587769,1.1494732
	c2.5880661,0.7635918,5.1991043,1.450079,7.8105164,2.1317558c0.3792076,0.0989685,0.8329124,0.0915604,1.2121124-0.0133438
	c2.6814728-0.740984,5.3484879-1.5345993,8.0299606-2.2763252c0.6075401-0.1679173,1.2525101-0.2754097,1.881176-0.2798557
	c3.5121613-0.0266914,7.0246887,0.0037041,10.5364761-0.0315094c0.4933701-0.0051937,1.0475311-0.1616173,1.4663925-0.4210892
	c2.7689514-1.7177143,5.5063934-3.485836,8.2582932-5.2306099c1.2465897-0.7902822,1.9434586-0.6649952,2.8560638,0.5193176
	c4.6089859,5.9815998,9.21315,11.9665356,13.8195496,17.9503632c0.1986771,0.2579918,0.4010696,0.5130157,0.6019821,0.7695274
	C92.4505386,35.7526932,92.4505386,36.143383,92.4505386,36.5337029"/>
</svg>
