<?xml version="1.0" encoding="utf-8"?>
<!-- Generator: Adobe Illustrator 27.0.1, SVG Export Plug-In . SVG Version: 6.00 Build 0)  -->
<svg version="1.1" id="Ebene_1" xmlns="http://www.w3.org/2000/svg" xmlns:xlink="http://www.w3.org/1999/xlink" x="0px" y="0px"
	 viewBox="0 0 65.7243729 42.4719238" style="enable-background:new 0 0 65.7243729 42.4719238;" xml:space="preserve">
<style type="text/css">
	.st0{fill:#E3000F;}
</style>
<g>
	<path class="st0" d="M65.7243729,21.2802734l-2.3962364-2.519043l-6.7910156-7.138916h-0.0002441L45.6064568,0.1318359
		C45.5261345,0.0476074,45.4145622,0,45.2985954,0H25.8757439c-0.170166,0-0.3237305,0.1010742-0.3908691,0.2573242
		c-0.0666504,0.15625-0.0339355,0.3374023,0.0830078,0.4604492l10.3725586,10.904541h-0.0004883l9.1870117,9.657959
		L34.1010857,32.8718262h0.0002441l-8.447998,8.8820801c-0.1169434,0.1228027-0.1494141,0.3046875-0.0830078,0.4606934
		c0.0671387,0.1560059,0.2207031,0.2573242,0.3911133,0.2573242h19.4226074c0.1162109,0,0.2275391-0.0480957,0.3081055-0.1318359
		l9.0053711-9.4682617h0.0007324l8.6298828-9.0725098L65.7243729,21.2802734L65.7243729,21.2802734z M60.6799431,21.2802734
		L43.9987907,38.8171387H33.4907341l10.0996094-10.6179199l6.5812988-6.9189453l-0.277832-0.2919922
		c-0.0004883-0.0002441-0.0004883-0.0007324-0.0007324-0.0012207L33.4050407,3.6547852h10.5090332l7.5788574,7.9675293h-0.0004883
		L60.6799431,21.2802734L60.6799431,21.2802734z M31.0864372,11.6223145L20.1560173,0.1318359
		C20.0754509,0.0476074,19.9643669,0,19.8479118,0H0.4250602C0.2548941,0,0.1013297,0.1010742,0.034191,0.2573242
		c-0.0666504,0.15625-0.0341797,0.3374023,0.0827637,0.4604492l10.3723145,10.904541l0,0l8.6774902,9.1223145l0.5095215,0.5354004
		L0.2016715,41.7539062c-0.1171875,0.1228027-0.1494141,0.3046875-0.0827637,0.4606934
		c0.0671387,0.1560059,0.220459,0.2573242,0.3908691,0.2573242h19.4238281c0.1159668,0,0.2275391-0.0480957,0.3078613-0.1318359
		l9.0056152-9.4682617h0.0002441l8.630127-9.0725098l2.3959961-2.519043l-0.2785645-0.2924805
		c-0.0002441-0.0002441-0.0002441-0.0004883-0.0002441-0.0007324l-6.1706543-6.4865723L31.0864372,11.6223145L31.0864372,11.6223145
		z M26.0417595,11.6223145l9.1870117,9.657959l-5.0412598,5.300293l-5.984375,6.2912598l-5.6547852,5.9453125H8.0400505
		l5.654541-5.9453125h0.0002441l11.0258789-11.5915527l-9.1867676-9.657959h-0.0007324L7.9546013,3.6547852h10.5080566
		L26.0417595,11.6223145L26.0417595,11.6223145z"/>
</g>
</svg>
