<?xml version="1.0" encoding="utf-8"?>
<!-- Generator: Adobe Illustrator 27.0.0, SVG Export Plug-In . SVG Version: 6.00 Build 0)  -->
<svg version="1.1" id="Ebene_1" xmlns="http://www.w3.org/2000/svg" xmlns:xlink="http://www.w3.org/1999/xlink" x="0px" y="0px"
	 viewBox="0 0 5000 5000" style="enable-background:new 0 0 5000 5000;" xml:space="preserve">
<style type="text/css">
	.st0{fill:#FFFFFF;}
</style>
<g>
	<path class="st0" d="M2529.3703613,2500.6855469c0-7.9931641-0.0332031-9.0400391-0.1767578-12.1855469
		c-0.1328125-2.8691406-0.5595703-5.0932617-1.3815918-7.2119141c-0.7453613-1.9799805-1.9328613-3.8046875-3.4367676-5.2807617
		c-1.4833984-1.5126953-3.3085938-2.7021484-5.2839355-3.4448242c-2.130127-0.8271484-4.3547363-1.2529297-7.2199707-1.3833008
		c-3.1738281-0.1450195-4.2263184-0.1791992-12.1860352-0.1791992c-7.9484863,0-9.0026855,0.0336914-12.1872559,0.1782227
		c-2.8666992,0.1313477-5.090332,0.5571289-7.2099609,1.3808594c-1.9824219,0.7460938-3.8071289,1.9331055-5.2807617,3.4345703
		c-1.5126953,1.484375-2.7026367,3.3100586-3.4458008,5.2856445c-0.8261719,2.1254883-1.2519531,4.3510742-1.3833008,7.2207031
		c-0.1445312,3.1259766-0.1782227,4.1694336-0.1782227,12.1855469c0,8.0163574,0.0336914,9.0595703,0.1782227,12.1875
		c0.1298828,2.8649902,0.5561523,5.0888672,1.3808594,7.2089844c0.7456055,1.9821777,1.9326172,3.807373,3.4345703,5.2819824
		c1.487793,1.5148926,3.3129883,2.7041016,5.2841797,3.4445801c2.128418,0.8269043,4.3540039,1.2539062,7.2202148,1.3847656
		c3.184082,0.1435547,4.2382812,0.1777344,12.1884766,0.1777344c7.9484863,0,9.0031738-0.0341797,12.1848145-0.1777344
		c2.8681641-0.1308594,5.0927734-0.5578613,7.2158203-1.3818359c3.9990234-1.5471191,7.1787109-4.7265625,8.7226562-8.723877
		c0.8271484-2.1328125,1.2529297-4.3583984,1.3818359-7.2145996
		C2529.3361816,2509.7390137,2529.3703613,2508.6943359,2529.3703613,2500.6855469L2529.3703613,2500.6855469z
		 M2523.7619629,2500.6865234c0,7.8710938-0.0302734,8.8076172-0.171875,11.9316406
		c-0.1308594,2.8642578-0.6083984,4.4118652-1.0087891,5.4394531c-0.9755859,2.5322266-2.9899902,4.5466309-5.5253906,5.5283203
		c-1.0322266,0.3994141-2.5839844,0.875-5.4384766,1.0058594c-3.1064453,0.140625-4.0390625,0.1708984-11.9328613,0.1708984
		c-7.8925781,0-8.824707-0.0302734-11.9306641-0.1708984c-2.8579102-0.1318359-4.4135742-0.609375-5.4492188-1.0107422
		c-1.25-0.4619141-2.4101562-1.21875-3.3491211-2.1855469c-0.9506836-0.9228516-1.7041016-2.0822754-2.1708984-3.3439941
		c-0.3979492-1.0302734-0.8745117-2.5839844-1.0039062-5.4333496c-0.1420898-3.130127-0.1723633-4.067627-0.1723633-11.9316406
		c0-7.8657227,0.0302734-8.8022461,0.1723633-11.9316406c0.1298828-2.8564453,0.6083984-4.4125977,1.0107422-5.4487305
		c0.4599609-1.2480469,1.2163086-2.4086914,2.1845703-3.3496094c0.9228516-0.9506836,2.0820312-1.7041016,3.3442383-2.1699219
		c1.0249023-0.3984375,2.5751953-0.875,5.4335938-1.0058594c3.0996094-0.1411133,4.0307617-0.1713867,11.9313965-0.1713867
		c7.8852539,0,8.8188477,0.0302734,11.9321289,0.1733398c2.8613281,0.1298828,4.4150391,0.6079102,5.4482422,1.0102539
		c1.2470703,0.4594727,2.4072266,1.215332,3.3476562,2.184082c0.9501953,0.921875,1.7041016,2.0810547,2.171875,3.3432617
		c0.3984375,1.0268555,0.8759766,2.5791016,1.0048828,5.4345703
		C2523.7316895,2491.8779297,2523.7619629,2492.8134766,2523.7619629,2500.6865234L2523.7619629,2500.6865234z
		 M2499.6853027,2515.9990234c-8.4436035,0-15.3132324-6.8693848-15.3132324-15.3134766
		c0-8.4433594,6.8696289-15.3125,15.3132324-15.3125c8.4438477,0,15.3129883,6.8691406,15.3129883,15.3125
		C2514.998291,2509.1296387,2508.1291504,2515.9990234,2499.6853027,2515.9990234L2499.6853027,2515.9990234z
		 M2499.6853027,2490.9814453c-5.3508301,0-9.704834,4.3535156-9.704834,9.7041016s4.3540039,9.7038574,9.704834,9.7038574
		c5.3510742,0,9.7045898-4.3532715,9.7045898-9.7038574S2505.036377,2490.9814453,2499.6853027,2490.9814453
		L2499.6853027,2490.9814453z M2519.1437988,2484.9165039c-0.0009766,2.0327148-1.65625,3.6865234-3.6894531,3.6865234
		s-3.6875-1.6538086-3.6875-3.6865234c0-2.0341797,1.6542969-3.6889648,3.6875-3.6889648
		C2517.4885254,2481.2275391,2519.1437988,2482.8823242,2519.1437988,2484.9165039L2519.1437988,2484.9165039z"/>
</g>
</svg>
