<?xml version="1.0" encoding="utf-8"?>
<!-- Generator: Adobe Illustrator 27.0.1, SVG Export Plug-In . SVG Version: 6.00 Build 0)  -->
<svg version="1.1" id="Ebene_1" xmlns="http://www.w3.org/2000/svg" xmlns:xlink="http://www.w3.org/1999/xlink" x="0px" y="0px"
	 viewBox="0 0 59.8081703 59.8516045" style="enable-background:new 0 0 59.8081703 59.8516045;" xml:space="preserve">
<style type="text/css">
	.st0{fill:#E3000F;}
</style>
<g>
	<path class="st0" d="M59.8081322,24.9922295c0.0080566,4.5390625-1.3215332,8.7382812-3.984375,12.5859375
		c-2.6618652,3.8515625-6.284668,6.8984375-10.8637695,9.1367188c-4.5783691,2.2382812-9.5830078,3.3632812-15.0134277,3.3710938
		c-1.5559082,0.0039062-3.170166-0.0976562-4.8393555-0.3046875c-2.6330566,2.7421875-10.7937002,10.0703125-18.4472656,10.0703125
		c-3.6369631,0-4.2077637-0.6328125-4.2077637-0.6328125s3.2934573-2.6445312,5.9086914-7.0039062
		c2.2109375-3.6875,2.954834-7.53125,2.954834-7.53125c-3.4985352-2.3164062-6.2553711-5.1794434-8.2758789-8.59375
		c-2.0202637-3.4140625-3.0324707-7.0820312-3.0397949-10.9921875c-0.0053711-3.390625,0.7783203-6.6367188,2.3535156-9.7304697
		s3.694092-5.7617188,6.3605957-8.0117188c2.6665039-2.2460938,5.8439941-4.0351562,9.5351553-5.359375
		c3.6904297-1.3242188,7.5615234-1.9882812,11.6115723-1.9960938c5.4287109-0.0078125,10.4375,1.0976562,15.0231934,3.3203125
		c4.5864258,2.2226562,8.2202148,5.2578125,10.8969727,9.0976562C58.4565697,16.2617607,59.7998314,20.453167,59.8081322,24.9922295
		L59.8081322,24.9922295z"/>
</g>
</svg>
