<?xml version="1.0" encoding="utf-8"?>
<!-- Generator: Adobe Illustrator 27.0.1, SVG Export Plug-In . SVG Version: 6.00 Build 0)  -->
<svg version="1.1" id="Ebene_1" xmlns="http://www.w3.org/2000/svg" xmlns:xlink="http://www.w3.org/1999/xlink" x="0px" y="0px"
	 viewBox="0 0 60.5053711 40.3203125" style="enable-background:new 0 0 60.5053711 40.3203125;" xml:space="preserve">
<style type="text/css">
	.st0{fill:#E3000F;}
</style>
<g>
	<path class="st0" d="M60.5053711,37.8203125V2.5c0-1.3808594-1.1191406-2.5-2.5-2.5H2.5C1.1188965,0,0,1.1191406,0,2.5v35.3203125
		c0,1.3806152,1.1188965,2.5,2.5,2.5h55.5053711C59.3862305,40.3203125,60.5053711,39.2009277,60.5053711,37.8203125
		L60.5053711,37.8203125z M52.2912598,5L32.5532227,23.2321777c-1.2470703,1.1523438-3.354248,1.151123-4.6018066,0.0007324
		L8.2138672,5H52.2912598L52.2912598,5z M55.5053711,35.3203125H5V8.8376465l19.5588379,18.0681152
		c1.5700684,1.4492188,3.6320801,2.1740723,5.6936035,2.1740723s4.1240234-0.7248535,5.6936035-2.1750488L55.5053711,8.8374023
		V35.3203125L55.5053711,35.3203125z"/>
</g>
</svg>
