<?xml version="1.0" encoding="utf-8"?>
<!-- Generator: Adobe Illustrator 27.0.1, SVG Export Plug-In . SVG Version: 6.00 Build 0)  -->
<svg version="1.1" id="Ebene_1" xmlns="http://www.w3.org/2000/svg" xmlns:xlink="http://www.w3.org/1999/xlink" x="0px" y="0px"
	 viewBox="0 0 60.2829208 60.4291992" style="enable-background:new 0 0 60.2829208 60.4291992;" xml:space="preserve">
<style type="text/css">
	.st0{fill:#E3000F;}
</style>
<g>
	<path class="st0" d="M60.2829208,29.8505859C60.2829208,13.3908691,46.8913193,0,30.4313583,0
		C13.9721308,0,0.5815057,13.3908691,0.5815057,29.8505859c0,4.9663086,1.2695312,9.9055176,3.673584,14.2915039
		l-4.2426758,15.829834c-0.0336914,0.1257324,0.0024414,0.2592773,0.0932617,0.3510742
		c0.0688476,0.0690918,0.1616211,0.1062012,0.2568359,0.1062012c0.0317383,0,0.0634766-0.0043945,0.0942383-0.0131836
		l15.9138174-4.2634277c4.3283691,2.3208008,9.1867676,3.5480957,14.060791,3.5480957
		C46.8913193,59.7006836,60.2829208,46.3100586,60.2829208,29.8505859L60.2829208,29.8505859z M53.9821396,29.8505859
		c0,12.9855957-10.5646973,23.550293-23.5507812,23.550293c-4.2092285,0-8.3654785-1.1508789-12.020752-3.3295898
		L17.3986435,49.46875c-0.0566406-0.0339355-0.1210938-0.0515137-0.185791-0.0515137
		c-0.0314941,0-0.0634766,0.0043945-0.0939941,0.0131836l-8.3596182,2.2399902l2.2260742-8.3081055
		c0.026123-0.0961914,0.0119629-0.197998-0.0397949-0.2822266l-0.6201172-1.0205078
		c-2.2529297-3.7011719-3.4438477-7.9230957-3.4438477-12.2089844c0-12.9851074,10.5644522-23.5495605,23.5498047-23.5495605
		C43.4174423,6.3010254,53.9821396,16.8654785,53.9821396,29.8505859L53.9821396,29.8505859z M45.8871689,37.1696777
		c-0.3068848-1.4104004-1.8466797-2.2727051-3.0830078-2.9663086c-0.2145996-0.119873-0.4189453-0.2341309-0.6035156-0.3449707
		c-1.4716797-0.878418-3.1936035-1.6865234-4.7980957-1.0285645c-0.9130859,0.3728027-1.5522461,1.4025879-2.1179199,2.310791
		c-0.237793,0.3820801-0.4628906,0.7434082-0.6811523,1.012207c-0.2248535,0.2783203-0.4709473,0.40625-0.9958496,0.1984863
		c-4.1906738-1.6711426-7.5161133-4.5209961-9.8937988-8.4841309c-0.3012695-0.4606934-0.2712402-0.7595215,0.1269531-1.2282715
		l0.1928711-0.2250977c0.7155762-0.8320312,1.5258789-1.7763672,1.7229004-2.9294434
		c0.2114258-1.239502-0.3413086-2.651123-0.8469238-3.7429199c-0.083252-0.1779785-0.1660156-0.3647461-0.2526855-0.5588379
		c-0.5622559-1.2578125-1.2617188-2.8242188-2.503418-3.5249023c-1.4450684-0.8183594-3.1972656-0.2805176-4.2915039,0.6118164
		c-1.8479004,1.5026855-2.8913565,3.8769531-2.8615713,6.5119629c0.0083008,0.6972656,0.09375,1.3896484,0.2563477,2.059082
		c0.3312988,1.3725586,0.9282217,2.748291,1.9333487,4.4599609c0.609375,1.0444336,1.28125,2.065918,1.9956055,3.0378418
		c2.4365234,3.309082,5.3544922,6.0178223,8.6726074,8.0517578c1.8515625,1.1333008,3.675293,2.0002441,5.420166,2.5749512
		l0.472168,0.1569824c1.4887695,0.4973145,2.9133301,0.9741211,4.4921875,0.9741211
		c0.4663086,0,0.9453125-0.0415039,1.4438477-0.1362305c2.7412109-0.5205078,5.0092773-2.2148438,5.9199219-4.4240723
		C45.9472275,38.7060547,46.0441513,37.8876953,45.8871689,37.1696777L45.8871689,37.1696777z"/>
</g>
</svg>
