<?xml version="1.0" encoding="utf-8"?>
<!-- Generator: Adobe Illustrator 27.0.0, SVG Export Plug-In . SVG Version: 6.00 Build 0)  -->
<svg version="1.1" id="Ebene_1" xmlns="http://www.w3.org/2000/svg" xmlns:xlink="http://www.w3.org/1999/xlink" x="0px" y="0px"
	 viewBox="0 0 5000 5000" style="enable-background:new 0 0 5000 5000;" xml:space="preserve">
<style type="text/css">
	.st0{fill:#FFFFFF;}
</style>
<g>
	<path class="st0" d="M2515.5717773,2478.8779297c0,0.572998-0.46875,1.0390625-1.0419922,1.0390625h-6.1179199
		c-2.1508789,0-3.2409668,1.0268555-3.2409668,3.0529785v6.7119141h9.3588867c0.295166,0,0.5800781,0.1262207,0.776123,0.3479004
		c0.1960449,0.2211914,0.2919922,0.517334,0.2590332,0.8132324l-1.2351074,10.7119141
		c-0.0629883,0.5209961-0.5058594,0.9199219-1.0349121,0.9199219h-8.1240234v28.9560547
		c0,0.5769043-0.4660645,1.0388184-1.0390625,1.0388184h-11.9829102c-0.572998,0-1.0388184-0.4619141-1.0388184-1.0388184
		v-29.0930176h-7.0671387c-0.5769043,0-1.0429688-0.4650879-1.0429688-1.0419922v-10.5749512
		c0-0.572998,0.4660645-1.0390625,1.0429688-1.0390625h7.4179688c0,0-0.2509766-9.598877,0.0742188-11.3359375
		c0.3508301-1.8850098,1.2939453-4.2319336,3.6108398-6.3649902C2499.1640625,2468.2849121,2504.25,2468,2505.7099609,2468
		c0.1960449,0,8.8198242,0.0070801,8.8198242,0.0070801c0.5732422,0,1.0419922,0.4658203,1.0419922,1.0388184V2478.8779297
		L2515.5717773,2478.8779297z"/>
</g>
</svg>
