<?xml version="1.0" encoding="utf-8"?>
<!-- Generator: Adobe Illustrator 27.3.1, SVG Export Plug-In . SVG Version: 6.00 Build 0)  -->
<svg version="1.1" id="Ebene_1" xmlns="http://www.w3.org/2000/svg" xmlns:xlink="http://www.w3.org/1999/xlink" x="0px" y="0px"
	 viewBox="0 0 99.2126007 99.2126007" style="enable-background:new 0 0 99.2126007 99.2126007;" xml:space="preserve">
<style type="text/css">
	.st0{fill:#1A1A18;}
	.st1{font-family:'MinionPro-Regular';}
	.st2{font-size:15.6086302px;}
	.st3{fill:#E3000F;stroke:#E3000F;stroke-width:1.3686876;stroke-miterlimit:10;}
</style>
<text transform="matrix(1 0 0 1 47.8348122 53.2352104)" class="st0 st1 st2"> </text>
<g>
	<path class="st3" d="M64.4696808,94.6182175V69.5480118c0-5.031601,1.0572891-8.9047813,2.177124-13.0055199
		c1.1224976-4.1093941,2.2835846-8.3578453,2.2835846-13.7900124v-8.9314003c0-3.2836552-2.6681747-5.9544926-5.9478302-5.9544926
		c-1.3274345,0-2.5550613,0.4378242-3.5458145,1.177063c-0.9548187-2.0141087-3.0055237-3.4100761-5.3756065-3.4100761
		c-1.3274345,0-2.5550613,0.4378185-3.5458107,1.1770573c-0.9548225-2.0141068-3.0055275-3.4100761-5.3756142-3.4100761
		c-1.7752342,0-3.3708153,0.7838192-4.4613724,2.0220928c-1.0898933-1.2382736-2.6854782-2.0220928-4.4607124-2.0220928
		c-3.2796593,0-5.9471703,2.6708374-5.9471703,5.9544888v6.8594112c-1.4964409,0.521656-2.7280598,1.6188698-3.4207191,3.1013336
		L23.9114189,45.6236c-1.8950043,4.0714607-0.9801064,8.8821602,2.2775974,11.9708557l8.5421543,8.0970192v28.9267426
		 M33.2440453,29.3550434c0-1.6414909,1.3340874-2.9775772,2.9735832-2.9775772s2.9742508,1.3360863,2.9742508,2.9775772v9.1529751
		l-4.4367561-2.071991c-0.4830666-0.2255669-0.9914169-0.3832626-1.5110779-0.4730873V29.3550434z M42.1654625,29.3550434
		c0-1.6414909,1.3340912-2.9775772,2.9742508-2.9775772c1.6394997,0,2.973587,1.3360863,2.973587,2.9775772v11.164423
		c0,0.8483582,0.1789856,1.6548004,0.4997025,2.386055l-6.4475403-3.0101852V29.3550434z M51.0868874,31.5880623
		c0-1.6414948,1.3347511-2.9775772,2.9742508-2.9775772c1.6394958,0,2.973587,1.3360825,2.973587,2.9775772v8.9314041
		c0,1.6414909-1.3340912,2.9775772-2.973587,2.9775772c-1.6394997,0-2.9742508-1.3360863-2.9742508-2.9775772V31.5880623z
		 M60.0083084,33.8210793c0-1.6414948,1.3347511-2.9775753,2.9742508-2.9775753
		c1.6394958,0,2.9735794,1.3360806,2.9735794,2.9775753v8.9314003c0,1.6414986-1.3340836,2.9775772-2.9735794,2.9775772
		c-1.6394997,0-2.9742508-1.3360786-2.9742508-2.9775772V33.8210793z M37.7047539,91.1755447V65.0513763
		c0-0.409874-0.1683388-0.8004532-0.4644356-1.0812454L28.2337284,55.4333
		c-2.3268356-2.2064018-2.980238-5.6437569-1.6268539-8.5514679l2.9376545-6.3064728
		c0.7126217-1.5263863,2.4945107-2.1225662,3.9523582-1.4412155l14.6889381,6.8567467
		c-2.0580215,2.783287-5.8619995,3.8345833-9.116375,2.3155212l-4.0428543-1.8870163
		c-0.745224-0.3479958-1.6295166-0.0259514-1.9761772,0.7192764c-0.3473282,0.7452202-0.0246201,1.6301804,0.7192764,1.9788399
		l4.0428505,1.8876839c1.6567993,0.7731743,3.5198631,1.1171722,5.4428101,0.9195518
		c3.1372719,3.3941078,4.8579445,7.7796288,4.8579445,12.4313087c0,0.8210754,0.6660461,1.4884491,1.4871254,1.4884491
		c0.8204155,0,1.4864616-0.6673737,1.4864616-1.4884491c0-4.8878899-1.6335106-9.5229301-4.6416931-13.2823296
		c2.2150497-0.9867554,4.0974121-2.7440224,5.1992798-5.1101189c0.0006676-0.0019989,0.0019951-0.0026627,0.0019951-0.003994
		c0.738575,0.3300323,1.5549965,0.5143433,2.414669,0.5143433c1.3274307,0,2.5543938-0.4378204,3.5451469-1.1763916
		c0.9548187,2.0134354,3.0055199,3.4094048,5.3762741,3.4094048c0.9162292,0,1.7832184-0.2082634,2.5597153-0.5802078
		c-0.4105377,2.6721649-1.0752563,5.1087875-1.7639198,7.6312447c-1.1218338,4.1093864-2.2829208,8.3578453-2.2829208,13.7900047
		v21.6255341"/>
	<path class="st3" d="M51.0958061,11.4457941V6.0834942c0-0.8224053-0.6673775-1.4891157-1.4891243-1.4891157
		c-0.8224106,0-1.4897842,0.6667104-1.4897842,1.4891157v5.3622999c0,0.8224106,0.6673737,1.4891262,1.4897842,1.4891262
		C50.4284286,12.9349203,51.0958061,12.2682047,51.0958061,11.4457941z"/>
	<path class="st3" d="M36.946022,16.3284206c0.711956-0.4112024,0.9561501-1.3221111,0.5456123-2.0347328l-2.2343483-3.8711843
		c-0.4112053-0.711957-1.322113-0.9561491-2.0347328-0.5449467c-0.7126236,0.4105425-0.9568176,1.3214455-0.5456123,2.0347376
		l2.2343483,3.8705139C35.3204994,16.4927711,36.2314034,16.7409592,36.946022,16.3284206z"/>
	<path class="st3" d="M24.8993759,23.5607738l-3.8711834-2.2343445c-0.7132893-0.4112072-1.6235294-0.1663456-2.0347347,0.5456123
		c-0.4112053,0.7126217-0.1663456,1.6235237,0.5456123,2.0347328l3.8711834,2.2343483
		c0.7092953,0.4092064,1.6215324,0.1696701,2.0347328-0.5456123C25.855526,24.8828888,25.6113319,23.971981,24.8993759,23.5607738z"
		/>
	<path class="st3" d="M64.3014755,15.7830782l2.2343445-3.8711796c0.4112091-0.7126265,0.1663437-1.6235294-0.5456085-2.0347376
		c-0.7126236-0.4112024-1.6235275-0.1663446-2.0347366,0.5456114l-2.2343483,3.8711843
		c-0.4105377,0.7126217-0.1663437,1.6235304,0.5456123,2.0347385
		C62.9766998,16.7379017,63.8882751,16.4983654,64.3014755,15.7830782z"/>
	<path class="st3" d="M75.8028412,26.1409187l3.8711853-2.2343426c0.7119522-0.4112072,0.9561539-1.3214455,0.5449448-2.0347328
		c-0.4112015-0.7119617-1.3214493-0.9561539-2.0347366-0.5449467l-3.8705139,2.2336788
		c-0.7126236,0.4112072-0.9568176,1.3221111-0.5456161,2.0347328
		C74.1779861,26.3052692,75.0882263,26.5534573,75.8028412,26.1409187z"/>
</g>
</svg>
