<?xml version="1.0" encoding="utf-8"?>
<!-- Generator: Adobe Illustrator 27.0.1, SVG Export Plug-In . SVG Version: 6.00 Build 0)  -->
<svg version="1.1" id="Ebene_1" xmlns="http://www.w3.org/2000/svg" xmlns:xlink="http://www.w3.org/1999/xlink" x="0px" y="0px"
	 viewBox="0 0 59.3703613 59.3710938" style="enable-background:new 0 0 59.3703613 59.3710938;" xml:space="preserve">
<style type="text/css">
	.st0{fill:#E3000F;}
</style>
<g>
	<path class="st0" d="M59.3703613,29.6855469c0-7.9931641-0.0332031-9.0400391-0.1767578-12.1855469
		c-0.1328125-2.8691406-0.5595703-5.0932617-1.3815918-7.2119141c-0.7453613-1.9799805-1.9328613-3.8046875-3.4367676-5.2807617
		C52.8918457,3.4946289,51.0666504,2.3051758,49.0913086,1.5625c-2.130127-0.8271484-4.3547363-1.2529297-7.2199707-1.3833008
		C38.6975098,0.0341797,37.6450195,0,29.6853027,0c-7.9484863,0-9.0026855,0.0336914-12.1872559,0.1782227
		c-2.8666992,0.1313477-5.090332,0.5571289-7.2099609,1.3808594C8.3056641,2.3051758,6.480957,3.4921875,5.0073242,4.9936523
		c-1.5126953,1.484375-2.7026367,3.3100586-3.4458008,5.2856445C0.7353516,12.4047852,0.3095703,14.6303711,0.1782227,17.5
		C0.0336914,20.6259766,0,21.6694336,0,29.6855469c0,8.0163574,0.0336914,9.0595703,0.1782227,12.1875
		c0.1298828,2.8649902,0.5561523,5.0888672,1.3808594,7.2089844c0.7456055,1.9821777,1.9326172,3.807373,3.4345703,5.2819824
		c1.487793,1.5148926,3.3129883,2.7041016,5.2841797,3.4445801c2.128418,0.8269043,4.3540039,1.2539062,7.2202148,1.3847656
		c3.184082,0.1435547,4.2382812,0.1777344,12.1884766,0.1777344c7.9484863,0,9.0031738-0.0341797,12.1848145-0.1777344
		c2.8681641-0.1308594,5.0927734-0.5578613,7.2158203-1.3818359c3.9990234-1.5471191,7.1787109-4.7265625,8.7226562-8.723877
		c0.8271484-2.1328125,1.2529297-4.3583984,1.3818359-7.2145996C59.3361816,38.7390137,59.3703613,37.6943359,59.3703613,29.6855469
		L59.3703613,29.6855469z M53.7619629,29.6865234c0,7.8710938-0.0302734,8.8076172-0.171875,11.9316406
		c-0.1308594,2.8642578-0.6083984,4.4118652-1.0087891,5.4394531c-0.9755859,2.5322266-2.9899902,4.5466309-5.5253906,5.5283203
		c-1.0322266,0.3994141-2.5839844,0.875-5.4384766,1.0058594c-3.1064453,0.140625-4.0390625,0.1708984-11.9328613,0.1708984
		c-7.8925781,0-8.824707-0.0302734-11.9306641-0.1708984c-2.8579102-0.1318359-4.4135742-0.609375-5.4492188-1.0107422
		c-1.25-0.4619141-2.4101562-1.21875-3.3491211-2.1855469c-0.9506836-0.9228516-1.7041016-2.0822754-2.1708984-3.3439941
		c-0.3979492-1.0302734-0.8745117-2.5839844-1.0039062-5.4333496c-0.1420898-3.130127-0.1723633-4.067627-0.1723633-11.9316406
		c0-7.8657227,0.0302734-8.8022461,0.1723633-11.9316406c0.1298828-2.8564453,0.6083984-4.4125977,1.0107422-5.4487305
		c0.4599609-1.2480469,1.2163086-2.4086914,2.1845703-3.3496094c0.9228516-0.9506836,2.0820312-1.7041016,3.3442383-2.1699219
		c1.0249023-0.3984375,2.5751953-0.875,5.4335938-1.0058594C20.8535156,5.6396484,21.784668,5.609375,29.6853027,5.609375
		c7.8852539,0,8.8188477,0.0302734,11.9321289,0.1733398c2.8613281,0.1298828,4.4150391,0.6079102,5.4482422,1.0102539
		c1.2470703,0.4594727,2.4072266,1.215332,3.3476562,2.184082c0.9501953,0.921875,1.7041016,2.0810547,2.171875,3.3432617
		c0.3984375,1.0268555,0.8759766,2.5791016,1.0048828,5.4345703C53.7316895,20.8779297,53.7619629,21.8134766,53.7619629,29.6865234
		L53.7619629,29.6865234z M29.6853027,44.9990234c-8.4436035,0-15.3132324-6.8693848-15.3132324-15.3134766
		c0-8.4433594,6.8696289-15.3125,15.3132324-15.3125c8.4438477,0,15.3129883,6.8691406,15.3129883,15.3125
		C44.998291,38.1296387,38.1291504,44.9990234,29.6853027,44.9990234L29.6853027,44.9990234z M29.6853027,19.9814453
		c-5.3508301,0-9.704834,4.3535156-9.704834,9.7041016s4.3540039,9.7038574,9.704834,9.7038574
		c5.3510742,0,9.7045898-4.3532715,9.7045898-9.7038574S35.036377,19.9814453,29.6853027,19.9814453L29.6853027,19.9814453z
		 M49.1437988,13.9165039c-0.0009766,2.0327148-1.65625,3.6865234-3.6894531,3.6865234s-3.6875-1.6538086-3.6875-3.6865234
		c0-2.0341797,1.6542969-3.6889648,3.6875-3.6889648C47.4885254,10.2275391,49.1437988,11.8823242,49.1437988,13.9165039
		L49.1437988,13.9165039z"/>
</g>
</svg>
