<?xml version="1.0" encoding="UTF-8"?>
<svg id="Ebene_1" data-name="Ebene 1" xmlns="http://www.w3.org/2000/svg" version="1.1" viewBox="0 0 99.2125984 99.2125984">
  <defs>
    <style>
      .cls-1 {
        fill: #e3000f;
        stroke-width: 0px;
      }
    </style>
  </defs>
  <g id="Ebene_1-2" data-name="Ebene 1">
    <g>
      <path class="cls-1" d="M76.2673345,34.8913927v-11.759478h0c-.0933254-11.0439556-16.4881558-19.6924604-37.4250044-19.6924604S1.5106512,12.0879591,1.4173228,23.1319147h0v53.1976467h0c.3110985,10.9195109,16.6126006,19.4435828,37.3939028,19.4435828,6.0664002,0,11.759481-.7466388,16.7681439-2.0532419,3.4220718,1.3066031,7.1241316,2.0532419,11.0128481,2.0532419,17.2036783,0,31.2030579-13.9993796,31.2030579-31.2030579,0-13.8438333-9.0840362-25.6033084-21.5901501-29.6786876l.062209-.0000059ZM38.8423302,9.194753c18.6658395,0,31.6697086,7.4041167,31.6697086,14.0304901,0,1.7732538-.9332896,3.577618-2.6443225,5.2886569-1.2754986,1.306609-3.0176419,2.5509971-5.1642151,3.6709494-5.6308599,2.955427-13.9371587,5.0708838-23.8922755,5.0708838s-18.2614096-2.1154628-23.8922755-5.0708838c-2.1154628-1.1199523-3.8576061-2.3643404-5.1642151-3.6709494-1.7110359-1.7110329-2.6443284-3.5465106-2.6443284-5.2886539,0-6.6263734,13.0038691-14.0304901,31.6697086-14.0304901l.062215-.000003ZM9.81695,35.8557928c6.8130331,4.3864718,17.2036842,7.1552361,29.0253802,7.1552361,1.8665851,0,3.7020598-.0933313,5.5064241-.2177672-3.3598509,3.4531822-5.9419584,7.6529913-7.4352242,12.3505617-9.3951406-.2799881-17.2347946-2.3954508-22.4923352-5.3197673-2.0532419-1.1510627-3.7331673-2.3954508-4.9464479-3.7020598-1.4932657-1.6177075-2.3021195-3.3287404-2.3021195-4.9775584,0-1.7732538.9332926-3.577618,2.6443225-5.288645ZM9.474744,53.5261218c6.1908361,4.1375942,15.4926483,6.8441435,26.194392,7.3107883-.1555463,1.2443881-.2488776,2.4887762-.2488776,3.7642807,0,2.7376538.3733194,5.3508718,1.0577314,7.8707645-9.1151526-.3110985-16.705929-2.3643404-21.8701441-5.1953256-2.0843523-1.1199523-3.7642777-2.3954508-5.0086659-3.6709494-1.5554866-1.648818-2.4265583-3.3909613-2.4265583-5.0708838s.8088538-3.3598509,2.3021195-4.9775584l.000003-.0311164ZM38.8423302,90.048941c-18.6658395,0-31.6697086-7.4041197-31.6697086-14.030496,0-1.6799284.8399642-3.4220718,2.4265583-5.0708838,6.7508122,4.4798031,17.1725708,7.2796719,29.0564876,7.3107883,2.1465732,4.4175763,5.3197614,8.2129675,9.208478,11.1683944-2.7998747.4044298-5.8175226.622197-8.9907108.622197h-.0311045ZM66.6233222,90.048941c-14.0304901,0-25.4477621-11.4172661-25.4477621-25.4788666s11.4172721-25.4788666,25.4477621-25.4788666,25.4788666,11.4172721,25.4788666,25.4788666-11.4172661,25.4788666-25.4788666,25.4788666Z"/>
      <path class="cls-1" d="M63.4190117,53.059471c2.9865315-1.4932657,7.2485734-1.5865971,10.8261855-.2799881,1.4932657.5599761,3.1420778-.2177672,3.7020539-1.7110329s-.2177672-3.1420837-1.7110329-3.7020598c-5.0708897-1.8665851-10.9506273-1.6799284-15.3682095.4977552-3.9509374,1.9599105-6.8441435,5.5375345-8.3374093,9.9240063h-2.4576717c-1.5865971,0-2.8620956,1.2754986-2.8620956,2.8620956s1.2754986,2.8620956,2.8620956,2.8620956h1.3688299c0,.342209-.0622209.684412-.0622209,1.0266209,0,.5288657.0933313.9955105.1244418,1.5243762h-1.4310448c-1.5865971,0-2.8620956,1.2754986-2.8620956,2.8620956s1.2754986,2.8620956,2.8620956,2.8620956h2.613218c.684412,1.928806,1.648818,3.6709494,2.8932061,5.1953196,3.1731941,3.857612,8.1196421,5.9730629,13.2216363,5.9730629,2.5509971,0,5.1642151-.5288598,7.5907705-1.6177075,1.4310448-.6533015,2.0843464-2.3643344,1.4310448-3.7953912-.6533015-1.4310448-2.3332299-2.0843464-3.7953912-1.4310448-4.884227,2.2087882-10.9195168,1.0266269-14.0304901-2.7687643-.3733194-.4666448-.7155224-.9955105-1.0266209-1.5243762h9.8928959c1.5865911,0,2.8620897-1.2754986,2.8620897-2.8620956s-1.2754986-2.8620956-2.8620897-2.8620956h-11.6039288c-.0311104-.4977552-.1244418-.9955105-.1244418-1.5243762,0-.342209,0-.684412.0622209-1.0266209h11.6661497c1.5865911,0,2.8620897-1.2754986,2.8620897-2.8620956s-1.2754986-2.8620956-2.8620897-2.8620956h-10.1106631c.9955105-1.9599105,2.4887762-3.6709494,4.6975703-4.7597912l-.0310986.0000119Z"/>
    </g>
  </g>
</svg>