<?xml version="1.0" encoding="utf-8"?>
<!-- Generator: Adobe Illustrator 27.3.1, SVG Export Plug-In . SVG Version: 6.00 Build 0)  -->
<svg version="1.1" id="Ebene_1" xmlns="http://www.w3.org/2000/svg" xmlns:xlink="http://www.w3.org/1999/xlink" x="0px" y="0px"
	 viewBox="0 0 99.2126007 99.2126007" style="enable-background:new 0 0 99.2126007 99.2126007;" xml:space="preserve">
<style type="text/css">
	.st0{fill:#E3000F;}
	.st1{fill:none;stroke:#E3000F;stroke-width:4.0566297;stroke-miterlimit:10;}
	.st2{fill:#E3000F;stroke:#E3000F;stroke-width:1.3766843;stroke-miterlimit:10;}
</style>
<path class="st0" d="M49.7428398,89.2412872c-2.6538239,0-5.3083534,0.0007095-7.9621773,0
	c-1.1126442-0.0007019-1.5687141-0.4179459-1.6061325-1.5277634c-0.0282402-0.8246002-0.0204735-1.6513138-0.0007057-2.475914
	c0.019062-0.7779999,0.4716034-1.1768875,1.32444-1.1182938c0.777298,0.0543671,15.2374229,2.0636215,16.8520279,2.3191833
	c0.6721039,0.1059036,0.9297905,0.4257126,0.9636803,1.1041718c0.0522423,1.0738144-0.5294952,1.6837921-1.6082497,1.6837921
	c-2.6545334,0-5.3083534,0-7.962883,0V89.2412872z"/>
<path class="st0" d="M49.7309074,94.6107101c-0.8994331,0-1.7988663-0.012001-2.6975937,0.0049438
	c-0.4927826,0.0091782-0.9608574-0.0804825-1.3195-0.4080658c-0.7257614-0.6636276-1.4331627-1.3498535-2.1095047-2.0629044
	c-0.3113403-0.3282852-0.160965-0.66716,0.2894592-0.7659988c0.1708488-0.0374222,0.3515816-0.0402451,0.5273743-0.0409546
	c3.5525513-0.0021133,7.1058083-0.0014114,10.6583633-0.0014114c0.0592995,0,0.1205902,0.0035324,0.1757889,0.0035324
	c0.3917923,0,0.6114922,0.120575,0.7095222,0.3240509c0.0646172,0.1341248-0.079071,0.5033722-0.2372131,0.66716
	c-0.6219788,0.6445694-1.2729034,1.2630234-1.9393616,1.8610001c-0.362175,0.3247528-0.8224792,0.4299469-1.3152618,0.4228821
	C51.5594254,94.6008301,50.6451683,94.6107101,49.7309074,94.6107101"/>
<path class="st0" d="M57.9723778,78.9821014c0.7907066,0.0042343,1.2531357,0.4264145,1.2976112,1.2178345
	c0.0543633,0.9552078,0.0571861,1.9153519,0.0254173,2.8719711c-0.0233002,0.6819916-0.4313622,1.0582809-1.1380615,1.0081558
	c-1.0858154-0.0776596-15.8826981-2.1165619-17.075119-2.3100052c-0.5774994-0.093895-0.8083611-0.3473434-0.9050827-0.9248428
	c-0.1807327-1.0759354,0.4673691-1.8405228,1.5609474-1.8405228"/>
<path class="st1" d="M49.6209145,74.4503326c-1.9887772,0-3.9782639,0.0014191-5.967041,0
	c-2.0014877-0.0021133-2.4024925-0.3268738-2.8345604-2.2930603c-0.5683212-2.5853424-1.0942879-5.1812744-1.7169724-7.7532043
	c-0.5979729-2.4674377-1.8532257-4.6581306-3.1042442-6.8389397c-1.621666-2.8260841-3.3541679-5.5914574-4.6383667-8.5989799
	c-1.2086582-2.831028-1.9598351-5.7630119-1.7473316-8.8644333c0.3014603-4.4159851,1.9803085-8.265049,5.0167789-11.4808426
	c3.872364-4.1004009,8.6900558-6.1527176,14.2963371-6.466177c9.0049286-0.503376,17.6406174,5.6331062,20.072052,14.2786846
	c1.2093658,4.3016052,0.6233902,8.4351921-1.1034622,12.4748764c-1.259491,2.9446907-2.864212,5.707943-4.5458794,8.4175377
	c-2.3996696,3.8646049-3.7226982,8.0850258-4.4872894,12.522892c-0.187088,1.0858078-0.4532433,2.1582108-0.7066956,3.2306137
	c-0.1899147,0.8055344-0.7109337,1.2644348-1.5510635,1.2926712c-1.1712418,0.038826-2.3424835,0.0628357-3.5144272,0.0755386
	C51.9330368,74.4602203,50.7766228,74.4503326,49.6209145,74.4503326z"/>
<path class="st2" d="M51.1825714,11.3540726V6.0647831c0-0.8104806-0.6579857-1.4684644-1.4691696-1.4684644
	c-0.8111877,0-1.4691696,0.6579838-1.4691696,1.4684644v5.2892895c0,0.8111858,0.6579819,1.4691696,1.4691696,1.4691696
	C50.5245857,12.8232422,51.1825714,12.1652584,51.1825714,11.3540726z"/>
<path class="st2" d="M37.225605,16.1701374c0.7024612-0.4052372,0.943203-1.3039608,0.5379639-2.0071306l-2.2041054-3.8180075
	c-0.4052391-0.7024584-1.3032646-0.9439096-2.0064316-0.537961c-0.7024612,0.4052372-0.9439125,1.3039665-0.5379639,2.0071306
	l2.2033997,3.8180075C35.6222954,16.3325176,36.5210228,16.5774975,37.225605,16.1701374z"/>
<path class="st2" d="M64.2082596,15.6322412l2.2033997-3.8180017c0.4059525-0.7031698,0.1652069-1.6018944-0.5372543-2.0071373
	c-0.7038727-0.4059429-1.6018982-0.1644917-2.0071373,0.5379667l-2.2041092,3.8180075
	c-0.4052353,0.7031641-0.1644936,1.6018944,0.5379677,2.0071316C62.9014702,16.5740395,63.8001976,16.3375282,64.2082596,15.6322412
	z"/>
<path class="st2" d="M28.0738297,25.8533802c0.4059467-0.7024593,0.1652031-1.6011887-0.5379658-2.0071316l-3.817297-2.204813
	c-0.7024632-0.4052372-1.6011906-0.1652031-2.0071354,0.5379658c-0.4059448,0.7024593-0.1652031,1.6004829,0.5379658,2.0071316
	l3.8172989,2.204813C26.7663326,26.7951794,27.6671791,26.5579605,28.0738297,25.8533802z"/>
<path class="st2" d="M71.1387711,25.8533802c-0.4059525-0.7024593-0.1652069-1.6011887,0.5379639-2.0071316l3.8172989-2.204813
	c0.7024612-0.4052372,1.6011887-0.1652031,2.0071335,0.5379658c0.4059448,0.7024593,0.1651993,1.6004829-0.5379639,2.0071316
	l-3.8172989,2.204813C72.4462662,26.7951794,71.5454178,26.5579605,71.1387711,25.8533802z"/>
</svg>
